<svg width="92" height="92" viewBox="0 0 92 92" fill="none" xmlns="http://www.w3.org/2000/svg">
<path fill-rule="evenodd" clip-rule="evenodd" d="M30.348 62.137L13.207 46L30.348 29.863L32.973 32.6521L18.793 46.0001L32.973 59.3481L30.348 62.137ZM59.028 59.3479L73.208 45.9999L59.028 32.6519L61.653 29.8628L78.794 45.9998L61.653 62.1368L59.028 59.3479ZM77.907 14.0939C60.286 -3.5271 31.719 -3.5271 14.098 14.0939C-3.52299 31.7149 -3.52299 60.2819 14.098 77.9029C31.719 95.5239 60.289 95.5239 77.907 77.9029C95.524 60.2859 95.524 31.7149 77.907 14.0939ZM53.989 23.6017L41.719 69.3907L38.0159 68.4024L50.2859 22.6134L53.989 23.6017Z" fill="#da8157"/>
</svg>
